<svg xmlns="http://www.w3.org/2000/svg" width="100" height="100" preserveAspectRatio="xMidYMid"><g transform="rotate(0)"><rect opacity="0" fill="#3f51b5" ry="6" y="27" width="6" x="47" rx="3" height="12"/></g><g transform="rotate(36 50 50)"><rect opacity="0.1" fill="#3f51b5" ry="6" y="27" width="6" x="47" rx="3" height="12"/></g><g transform="rotate(72 50 50)"><rect opacity="0.2" fill="#3f51b5" ry="6" y="27" width="6" x="47" rx="3" height="12"/></g><g transform="rotate(108 50 50)"><rect opacity="0.3" fill="#3f51b5" ry="6" y="27" width="6" x="47" rx="3" height="12"/></g><g transform="rotate(144 50 50)"><rect opacity="0.4" fill="#3f51b5" ry="6" y="27" width="6" x="47" rx="3" height="12"/></g><g transform="rotate(180 50 50)"><rect opacity="0.5" fill="#3f51b5" ry="6" y="27" width="6" x="47" rx="3" height="12"/></g><g transform="rotate(216 50 50)"><rect opacity="0.6" fill="#3f51b5" ry="6" y="27" width="6" x="47" rx="3" height="12"/></g><g transform="rotate(252 50 50)"><rect opacity="0.7" fill="#3f51b5" ry="6" y="27" width="6" x="47" rx="3" height="12"/></g><g transform="rotate(288 50 50)"><rect opacity="0.8" fill="#3f51b5" ry="6" y="27" width="6" x="47" rx="3" height="12"/></g><g transform="rotate(324 50 50)"><rect opacity="0.9" fill="#3f51b5" ry="6" y="27" width="6" x="47" rx="3" height="12"/></g></svg>
